<?xml version="1.0" encoding="utf-8"?>
<!-- Generator: Adobe Illustrator 22.0.1, SVG Export Plug-In . SVG Version: 6.00 Build 0)  -->
<svg version="1.1" id="Capa_1" xmlns="http://www.w3.org/2000/svg" xmlns:xlink="http://www.w3.org/1999/xlink" x="0px" y="0px"
	 viewBox="0 0 284.9 284.9" style="enable-background:new 0 0 284.9 284.9;" xml:space="preserve">
<style type="text/css">
	.st0{fill:url(#SVGID_1_);}
	.st1{fill:url(#SVGID_2_);}
</style>
<g>
	<g>
		<linearGradient id="SVGID_1_" gradientUnits="userSpaceOnUse" x1="142.4645" y1="4.564" x2="142.4645" y2="170.728">
			<stop  offset="0" style="stop-color:#7933D3"/>
			<stop  offset="1" style="stop-color:#6F00FF"/>
		</linearGradient>
		<path class="st0" d="M135.9,167.9c1.9,1.9,4.1,2.9,6.6,2.9s4.7-0.9,6.6-2.9l133.1-133c1.9-1.9,2.8-4.1,2.8-6.6s-1-4.7-2.8-6.6
			L267.8,7.4c-1.9-1.9-4.1-2.9-6.6-2.9c-2.5,0-4.7,0.9-6.6,2.9L142.5,119.6L30.3,7.4c-1.9-1.9-4.1-2.9-6.6-2.9
			c-2.5,0-4.7,0.9-6.6,2.9L2.9,21.7C0.9,23.6,0,25.8,0,28.3s1,4.7,2.9,6.6L135.9,167.9z"/>
		<linearGradient id="SVGID_2_" gradientUnits="userSpaceOnUse" x1="142.4645" y1="114.197" x2="142.4645" y2="280.363">
			<stop  offset="0" style="stop-color:#7933D3"/>
			<stop  offset="1" style="stop-color:#6F00FF"/>
		</linearGradient>
		<path class="st1" d="M267.8,117.1c-1.9-1.9-4.1-2.9-6.6-2.9c-2.5,0-4.7,0.9-6.6,2.9L142.5,229.3L30.3,117
			c-1.9-1.9-4.1-2.9-6.6-2.9c-2.5,0-4.7,0.9-6.6,2.9L2.9,131.3c-1.9,1.9-2.9,4.1-2.9,6.6c0,2.5,1,4.7,2.9,6.6l133,133
			c1.9,1.9,4.1,2.9,6.6,2.9s4.7-1,6.6-2.9l133.1-133c1.9-1.9,2.8-4.1,2.8-6.6c0-2.5-1-4.7-2.8-6.6L267.8,117.1z"/>
	</g>
</g>
</svg>
