<?xml version="1.0" encoding="utf-8"?>
<!-- Generator: Adobe Illustrator 22.0.1, SVG Export Plug-In . SVG Version: 6.00 Build 0)  -->
<svg version="1.1" id="Lager_1" xmlns="http://www.w3.org/2000/svg" xmlns:xlink="http://www.w3.org/1999/xlink" x="0px" y="0px"
	 viewBox="0 0 1920 1080" style="enable-background:new 0 0 1920 1080;" xml:space="preserve">
<style type="text/css">
	.st0{opacity:0.19;fill:#BF81FF;}
	.st1{fill:#BF81FF;}
</style>
<path class="st0" d="M0.7-47.2c0,0,4.5,51.2,59,150.3s16.5,229.6,16.5,257.7c0,28.1,1.7,173.4,128.8,224.6
	c127.2,51.2,92.5,196.6-44.6,229.6S0.7,1127.2,0.7,1127.2V-47.2z"/>
<path class="st1" d="M0,13.6c0,0-1.4,46.5,48.1,136.5s15,208.5,15,234c0,25.5,1.5,157.5,117,204c115.5,46.5,84,178.5-40.5,208.5
	C15.1,826.6,0,1080,0,1080V13.6z"/>
</svg>
