<svg xmlns="http://www.w3.org/2000/svg" width="913" height="913" viewBox="0 0 913 913">
  <metadata><?xpacket begin="﻿" id="W5M0MpCehiHzreSzNTczkc9d"?>
<x:xmpmeta xmlns:x="adobe:ns:meta/" x:xmptk="Adobe XMP Core 5.6-c142 79.160924, 2017/07/13-01:06:39        ">
   <rdf:RDF xmlns:rdf="http://www.w3.org/1999/02/22-rdf-syntax-ns#">
      <rdf:Description rdf:about=""/>
   </rdf:RDF>
</x:xmpmeta>
                                                                                                    
                                                                                                    
                                                                                                    
                                                                                                    
                                                                                                    
                                                                                                    
                                                                                                    
                                                                                                    
                                                                                                    
                                                                                                    
                                                                                                    
                                                                                                    
                                                                                                    
                                                                                                    
                                                                                                    
                                                                                                    
                                                                                                    
                                                                                                    
                                                                                                    
                                                                                                    
                           
<?xpacket end="w"?></metadata>
<defs>
    <style>
      .cls-1 {
        fill: #a44dfd;
      }

      .cls-2 {
        fill: #fff;
        fill-rule: evenodd;
      }
    </style>
  </defs>
  <circle class="cls-1" cx="456.5" cy="456.5" r="456.5"/>
  <path class="cls-2" d="M514.365,162.555S766.993,168.829,762,405c-4.9,231.991-247.6,241.556-247.635,241.552m0-104.434s134.083-16.208,134.083-137.6c0-127.826-134.083-137.529-134.083-137.529"/>
  <path class="cls-2" d="M543.629,537.294s-11.783,3.3-35.5,5.283c-20.859,1.742-58.527-.453-58.527-0.453L391.316,646.688s54.861,4.116,90.908,2.974c60.89-1.93,81.793-11.045,81.793-11.045Z"/>
  <path id="Shape_5_copy" data-name="Shape 5 copy" class="cls-2" d="M520.122,162.523H505.73l-53.249,99.855s43.407,1.442,94.985,8.643c7.614,1.063-21.587-11.044-21.587-11.044Z"/>
  <path id="Shape_1_copy_2" data-name="Shape 1 copy 2" class="cls-2" d="M326.313,700.083L542.668,326.111,402.829,360.1,228.209,662.281"/>
  <path id="Shape_1_copy_5" data-name="Shape 1 copy 5" class="cls-2" d="M425.136,162.5L198.317,563.229,169.923,432.61l153.752-270.6"/>
  <path class="cls-2" d="M542.429,326.245s-83.019-55.483-139.84,34.094l95.945,41.538Z"/>
  <path id="Shape_1_copy" data-name="Shape 1 copy" class="cls-2" d="M186.713,733.987s83.019,55.519,139.84-34.117l-95.945-41.564Z"/>
  <path id="Shape_1_copy_3" data-name="Shape 1 copy 3" class="cls-2" d="M177.119,420.605s-59.331,78.26,20.949,142.669L249.8,472.227Z"/>
</svg>
