<?xml version="1.0" encoding="utf-8"?>
<!-- Generator: Adobe Illustrator 22.0.1, SVG Export Plug-In . SVG Version: 6.00 Build 0)  -->
<svg version="1.1" id="Lager_1" xmlns="http://www.w3.org/2000/svg" xmlns:xlink="http://www.w3.org/1999/xlink" x="0px" y="0px"
	 viewBox="0 0 29 50" style="enable-background:new 0 0 29 50;" xml:space="preserve">
<style type="text/css">
	.st0{display:none;}
	.st1{display:none;fill:#FFFFFF;}
	.st2{fill:#BF81FF;stroke:url(#SVGID_1_);stroke-miterlimit:10;}
	.st3{fill:#BF81FF;stroke:url(#SVGID_2_);stroke-miterlimit:10;}
	.st4{fill:#BF81FF;stroke:url(#SVGID_3_);stroke-miterlimit:10;}
	.st5{fill:url(#SVGID_4_);stroke:url(#SVGID_5_);stroke-miterlimit:10;}
	.st6{fill:#FFFFFF;stroke:#FFFFFF;stroke-miterlimit:10;}
	.st7{fill:url(#SVGID_6_);}
	.st8{fill:url(#SVGID_7_);}
</style>
<path class="st0" d="M10,2L7,4l-5,6v29l3,5l4,3l4,1h3l5-2l5-6v-4h1V14h-1V9l-2-3l-1-1h-2l-1-2l-2-1H10z"/>
<path class="st1" d="M13,3L9,4L6,6L4,9v4H3v24h1v4l6,5h9l3-2l1-1v-2h1l1-2V10l-2-3l-1-1l-1-1l-5-2H13z"/>
<path class="st0" d="M14,9l-1,10h2v-2L14,9z"/>
<linearGradient id="SVGID_1_" gradientUnits="userSpaceOnUse" x1="10.4598" y1="1.6582" x2="10.4598" y2="9.6753">
	<stop  offset="0" style="stop-color:#B67DFF"/>
	<stop  offset="1" style="stop-color:#802DEA"/>
</linearGradient>
<polygon class="st2" points="10.4,6.1 10.1,9.2 10.8,9.2 "/>
<linearGradient id="SVGID_2_" gradientUnits="userSpaceOnUse" x1="14.506" y1="-1.0892" x2="14.506" y2="8.1308">
	<stop  offset="0" style="stop-color:#B67DFF"/>
	<stop  offset="1" style="stop-color:#802DEA"/>
</linearGradient>
<polygon class="st3" points="14.4,2.7 13.8,7.6 15.2,7.6 "/>
<linearGradient id="SVGID_3_" gradientUnits="userSpaceOnUse" x1="18.3835" y1="1.2624" x2="18.3835" y2="9.5712">
	<stop  offset="0" style="stop-color:#B67DFF"/>
	<stop  offset="1" style="stop-color:#802DEA"/>
</linearGradient>
<polygon class="st4" points="18.3,5.7 18,9.1 18.8,9.1 "/>
<g>
	<linearGradient id="SVGID_4_" gradientUnits="userSpaceOnUse" x1="14.5" y1="6.3519" x2="14.5" y2="41.7719">
		<stop  offset="0" style="stop-color:#B67DFF"/>
		<stop  offset="1" style="stop-color:#802DEA"/>
	</linearGradient>
	<linearGradient id="SVGID_5_" gradientUnits="userSpaceOnUse" x1="14.5" y1="5.8519" x2="14.5" y2="42.2719">
		<stop  offset="0" style="stop-color:#B67DFF"/>
		<stop  offset="1" style="stop-color:#802DEA"/>
	</linearGradient>
	<path class="st5" d="M14.9,41.8h-0.8c-5.1,0-9.2-4.2-9.2-9.2V15.6c0-5.1,4.2-9.2,9.2-9.2h0.8c5.1,0,9.2,4.2,9.2,9.2v16.9
		C24.1,37.6,20,41.8,14.9,41.8z"/>
	<path class="st6" d="M14.5,23.3L14.5,23.3c-0.4,0-0.8-0.4-0.8-0.8v-8.2c0-0.4,0.4-0.8,0.8-0.8l0,0c0.4,0,0.8,0.4,0.8,0.8v8.2
		C15.3,22.9,14.9,23.3,14.5,23.3z"/>
	<g>
		<linearGradient id="SVGID_6_" gradientUnits="userSpaceOnUse" x1="7.6546" y1="46.2717" x2="15.1111" y2="46.2717">
			<stop  offset="0" style="stop-color:#B67DFF"/>
			<stop  offset="1" style="stop-color:#802DEA"/>
		</linearGradient>
		<path class="st7" d="M7.8,43.6l6.2,6.2c0.2,0.2,0.6,0.2,0.9,0l0,0c0.2-0.2,0.2-0.6,0-0.9l-6.2-6.2c-0.2-0.2-0.6-0.2-0.9,0h0
			C7.6,43,7.6,43.4,7.8,43.6z"/>
		<linearGradient id="SVGID_7_" gradientUnits="userSpaceOnUse" x1="13.8889" y1="46.2717" x2="21.3454" y2="46.2717">
			<stop  offset="0" style="stop-color:#B67DFF"/>
			<stop  offset="1" style="stop-color:#802DEA"/>
		</linearGradient>
		<path class="st8" d="M15,49.8l6.2-6.2c0.2-0.2,0.2-0.6,0-0.9h0c-0.2-0.2-0.6-0.2-0.9,0l-6.2,6.2c-0.2,0.2-0.2,0.6,0,0.9l0,0
			C14.3,50.1,14.7,50.1,15,49.8z"/>
	</g>
</g>
</svg>
