<?xml version="1.0" encoding="utf-8"?>
<!-- Svg Vector Icons : http://www.onlinewebfonts.com/icon -->
<!DOCTYPE svg PUBLIC "-//W3C//DTD SVG 1.1//EN" "http://www.w3.org/Graphics/SVG/1.1/DTD/svg11.dtd">
<svg version="1.1" xmlns="http://www.w3.org/2000/svg" xmlns:xlink="http://www.w3.org/1999/xlink" x="0px" y="0px" viewBox="0 0 1000 1000" enable-background="new 0 0 1000 1000" xml:space="preserve">
<metadata> Svg Vector Icons : http://www.onlinewebfonts.com/icon </metadata>
<g><path d="M500,10C229.4,10,10,229.4,10,500c0,270.6,219.4,490,490,490s490-219.4,490-490C990,229.4,770.6,10,500,10z M817.7,817.7c-41.3,41.3-89.3,73.7-142.8,96.3c-55.4,23.4-114.2,35.3-174.8,35.3c-60.7,0-119.5-11.9-174.8-35.3c-53.5-22.6-101.5-55-142.8-96.3c-41.3-41.3-73.7-89.3-96.3-142.8C62.6,619.5,50.8,560.7,50.8,500c0-60.7,11.9-119.5,35.3-174.8c22.6-53.5,55-101.5,96.3-142.8c41.3-41.3,89.3-73.7,142.8-96.3C380.5,62.6,439.3,50.8,500,50.8c60.7,0,119.5,11.9,174.8,35.3c53.5,22.6,101.5,55,142.8,96.3c41.3,41.3,73.7,89.3,96.3,142.8c23.4,55.4,35.3,114.2,35.3,174.8c0,60.7-11.9,119.5-35.3,174.9C891.3,728.3,858.9,776.4,817.7,817.7z M520.4,255h-40.8v224.6H255v40.8h224.6V745h40.8V520.4H745v-40.8H520.4V255z"/></g>
</svg>