<?xml version="1.0" encoding="utf-8"?>
<!-- Generator: Adobe Illustrator 22.0.1, SVG Export Plug-In . SVG Version: 6.00 Build 0)  -->
<svg version="1.1" id="Lager_1" xmlns="http://www.w3.org/2000/svg" xmlns:xlink="http://www.w3.org/1999/xlink" x="0px" y="0px"
	 viewBox="0 0 1000 1000" style="enable-background:new 0 0 1000 1000;" xml:space="preserve">
<style type="text/css">
	.st0{display:none;}
</style>
<g>
	<path class="st0" d="M10,554.1c0-3.8,1.4-7.6,4.3-10.4l108.2-108.2c5.8-5.8,15.1-5.8,20.9,0l108.3,108.2c5.8,5.8,5.8,15.1,0,20.9
		c-5.8,5.8-15.1,5.8-20.9,0L133,466.8l-97.8,97.8c-5.8,5.8-15.1,5.8-20.9,0C11.4,561.7,10,557.9,10,554.1L10,554.1z"/>
	<path d="M335.3,86.6c12.4,0,24.8,4.6,33.9,14L722.6,454c18.9,18.9,18.9,49.3,0,68.2l-353,353c-18.9,18.9-49.3,18.9-68.2,0
		c-18.9-18.9-18.9-49.3,0-68.2l319.1-319.1L301.4,168.8c-18.9-18.9-18.9-49.3,0-68.2C310.8,91.2,322.9,86.6,335.3,86.6L335.3,86.6z"
		/>
	<path class="st0" d="M781.7,445.9c0,3.8-1.4,7.6-4.3,10.4L669.2,564.6c-5.8,5.8-15.1,5.8-20.9,0L540,456.3
		c-5.8-5.8-5.8-15.1,0-20.9s15.1-5.8,20.9,0l97.8,97.8l97.8-97.8c5.8-5.8,15.1-5.8,20.9,0C780.3,438.3,781.7,442.1,781.7,445.9
		L781.7,445.9z"/>
	<path class="st0" d="M975.2,623c-3.8,0-7.6-1.4-10.4-4.3L856.6,510.4c-5.8-5.8-5.8-15.1,0-20.9l108.2-108.3
		c5.8-5.8,15.1-5.8,20.9,0c5.8,5.8,5.8,15.1,0,20.9L887.9,500l97.8,97.8c5.8,5.8,5.8,15.1,0,20.9C982.8,621.6,979,623,975.2,623
		L975.2,623z"/>
</g>
</svg>
