<?xml version="1.0" encoding="utf-8"?>
<!-- Svg Vector Icons : http://www.onlinewebfonts.com/icon -->
<!DOCTYPE svg PUBLIC "-//W3C//DTD SVG 1.1//EN" "http://www.w3.org/Graphics/SVG/1.1/DTD/svg11.dtd">
<svg version="1.1" xmlns="http://www.w3.org/2000/svg" xmlns:xlink="http://www.w3.org/1999/xlink" x="0px" y="0px" viewBox="0 0 1000 1000" enable-background="new 0 0 1000 1000" xml:space="preserve">
<metadata> Svg Vector Icons : http://www.onlinewebfonts.com/icon </metadata>
<g><path d="M890.2,255.6c13.6,0,26.6,2.6,38.8,7.8c12.2,5.2,22.8,12.3,31.9,21.3c9,9,16.1,19.6,21.3,31.9c5.2,12.2,7.8,25.4,7.8,39.4v288c0,14-2.6,27.1-7.8,39.1c-5.2,12-12.3,22.6-21.3,31.9c-9,9.2-19.6,16.4-31.9,21.6c-12.2,5.2-25.2,7.8-38.8,7.8H110.4c-14,0-27.1-2.6-39.1-7.8c-12-5.2-22.6-12.4-31.9-21.6c-9.2-9.2-16.4-19.8-21.6-31.9C12.6,671,10,658,10,644V356c0-14,2.6-27.2,7.8-39.4c5.2-12.2,12.4-22.8,21.6-31.9c9.2-9,19.8-16.1,31.9-21.3c12-5.2,25.1-7.8,39.1-7.8H890.2z M314.2,610.3c18.8-14.8,31.9-36.5,39.1-64.9l-39.1-12c-4.8,22-13.1,36.8-25,44.2c-11.8,7.4-27.4,11.1-46.6,11.1c-1.6,0-6.5-0.4-14.7-1.2s-17-4-26.5-9.6c-9.4-5.6-17.9-14.7-25.6-27.4c-7.6-12.6-11.4-31-11.4-55c0-2.8,0.9-8.9,2.7-18.3c1.8-9.4,5.5-19.2,11.1-29.5c5.6-10.2,13.7-19.3,24.4-27.4c10.6-8,25-12,43-12c17.2,0,30.1,3.5,38.5,10.5s16,17.9,22.8,32.8l42.1-12.6c-7.2-24.4-19.6-43.1-37.3-55.9c-17.6-13.2-39.5-19.8-65.5-19.8c-22.4,0-43.5,5.2-63.1,15.6c-19.6,11.2-34.5,26.7-44.5,46.3c-10.4,20-15.6,43.7-15.6,70.9c0,24.4,4.6,47.7,13.8,69.7c8.8,20.8,22.2,37.3,40.3,49.3c16.8,11.6,39.7,17.4,68.5,17.4C272.9,632.6,295.8,625.2,314.2,610.3L314.2,610.3z M527.1,478.1c-22.4-6.4-38.4-12.3-47.8-17.7c-9.4-5.4-14.1-12.7-14.1-21.9c0-10.8,4.7-19.2,14.1-25.3c9.4-6,24.7-9,46-9c10,0,18,0.8,24,2.4c6,1.6,11,4,15,7.2c4,3.2,7.3,7.3,9.9,12.3s5.3,10.9,8.1,17.7l33.1-3c0-1.2-0.6-6-1.8-14.4c-1.2-8.4-4.8-17.2-10.8-26.5c-6-9.2-15.2-17.6-27.7-25.3c-12.4-7.6-29.7-11.4-51.7-11.4c-23.2,0-41.5,2.8-54.7,8.4c-13.2,5.6-23.1,12.3-29.8,20.1s-10.8,15.7-12.6,23.7c-1.8,8-2.7,14.4-2.7,19.2c0,14.4,4,26.5,12,36.1c8,9.6,17.2,17.4,27.7,23.4c10.4,6,20.6,10.4,30.7,13.2c10,2.8,17.2,4.8,21.6,6c12.8,4,23.2,8,31.3,12c8,4,14.1,7.9,18.3,11.7c4.2,3.8,7,7.4,8.4,10.8c1.4,3.4,2.1,6.5,2.1,9.3v13.8c0,4.4-1.4,8.2-4.2,11.4c-2.8,3.2-7.6,5.8-14.4,7.8c-6.8,2-17,3-30.7,3c-16.4,0-29.2-1.7-38.2-5.1c-9-3.4-15.6-7.5-19.8-12.3c-4.2-4.8-6.6-10.1-7.2-15.9c-0.6-5.8-0.9-11.1-0.9-15.9h-38.5c0,8,0.6,17.1,1.8,27.4c1.2,10.2,5.3,19.8,12.3,28.9c7,9,18,16.6,33.1,22.8s36.4,9.3,64,9.3c7.6,0,16.2-0.6,25.9-1.8c9.6-1.2,18.4-4.3,26.5-9.3c8-5,14.8-12.7,20.4-23.1c5.6-10.4,8.4-25.1,8.4-43.9c0-4-0.5-9.1-1.5-15.3c-1-6.2-4.3-12.9-9.9-20.1c-5.6-7.2-14.2-14.4-25.9-21.6C565.3,490.1,548.7,483.7,527.1,478.1L527.1,478.1z M791,478.1c-14-3.2-25-6.2-32.8-9c-7.8-2.8-13.7-5.7-17.7-8.7s-6.5-6.2-7.5-9.6s-1.5-7.5-1.5-12.3c0-10.8,4.3-19,12.9-24.7s23.5-8.4,44.8-8.4c10,0,17.7,0.7,23.1,2.1c5.4,1.4,9.6,3.7,12.6,6.9s5.4,7.2,7.2,12c1.8,4.8,4.3,10.6,7.5,17.4l39.7-3c0-1.2-0.6-6-1.8-14.4s-4.8-17.2-10.8-26.5s-15.2-17.6-27.7-25.3c-12.4-7.6-29.7-11.4-51.7-11.4c-22.8,0-41,2.8-54.4,8.4s-23.4,12.3-30.1,20.1s-10.8,15.7-12.6,23.7c-1.8,8-2.7,14.4-2.7,19.2c0,14.4,4,26.9,12,37.3c8,10.4,17.2,18.9,27.7,25.6c10.4,6.6,20.6,11.6,30.7,15c10,3.4,17.2,5.7,21.6,6.9c14.8,4,26.2,7.7,34,11.1s13.3,6.6,16.5,9.6c3.2,3,4.9,5.9,5.1,8.7c0.2,2.8,0.3,5.6,0.3,8.4c0,4.8-0.4,9.1-1.2,12.9c-0.8,3.8-2.8,7.1-6,9.9c-3.2,2.8-7.8,4.9-13.8,6.3c-6,1.4-14,2.1-24,2.1c-16.4,0-28.9-2.1-37.3-6.3c-8.4-4.2-14.4-8.9-18-14.1c-3.6-5.2-5.5-10.2-5.7-15c-0.2-4.8-0.3-7.8-0.3-9h-43.3c0,2,0.7,7.7,2.1,17.1c1.4,9.4,5.6,19.4,12.6,30.1c7,10.6,17.9,20.1,32.8,28.6s36.1,12.6,63.7,12.6c7.6,0,16.2-1.1,25.9-3.3c9.6-2.2,18.4-6.2,26.5-12s14.8-13.7,20.4-23.7s8.4-23,8.4-39.1c0-4-0.1-9.2-0.3-15.6c-0.2-6.4-2.8-13.2-7.8-20.4c-5-7.2-13.5-14.3-25.6-21.3C832.5,490,814.6,483.7,791,478.1L791,478.1z"/></g>
</svg>