<?xml version="1.0" encoding="utf-8"?>
<!-- Svg Vector Icons : http://www.onlinewebfonts.com/icon -->
<!DOCTYPE svg PUBLIC "-//W3C//DTD SVG 1.1//EN" "http://www.w3.org/Graphics/SVG/1.1/DTD/svg11.dtd">
<svg version="1.1" xmlns="http://www.w3.org/2000/svg" xmlns:xlink="http://www.w3.org/1999/xlink" x="0px" y="0px" viewBox="0 0 1000 1000" enable-background="new 0 0 1000 1000" xml:space="preserve">
<metadata> Svg Vector Icons : http://www.onlinewebfonts.com/icon </metadata>
<g><g transform="translate(0.000000,511.000000) scale(0.100000,-0.100000)"><path d="M9245.8,4844c51-101.9,70.1-194.3,70.1-347.2c-3.2-261.2-76.5-426.8-350.4-796.3c-395-531.9-519.2-952.4-372.7-1283.6c35.1-79.6,51-156.1,38.2-172c-12.8-12.7-70.1-175.2-127.4-359.9c-54.2-184.7-111.5-369.5-127.4-414.1c-12.8-44.6-127.4-321.7-254.8-621.1c-293-691.2-388.6-977.9-684.8-2070.4c-481-1758.2-904.6-3500.5-863.2-3541.9c41.4-44.6,433.2,882.3,1070.2,2538.6C8325.3-453,8497.3,40.7,8682,760.6c98.8,382.2,187.9,700.7,200.7,710.3c28.7,22.3,229.3,586.1,238.9,678.4c6.3,38.2,54.1,143.3,108.3,232.5c305.8,493.7,579.7,1207.2,579.7,1513c0,296.2-178.4,646.6-471.4,933.3l-162.5,156.1L9245.8,4844z"/><path d="M110.7,3566.7c-9.5-22.3-12.7-1595.8-9.5-3497.3l9.5-3455.9l3121.5-9.6l3124.7-6.4l70.1,267.5c38.2,146.5,70.1,283.5,70.1,302.6c0,25.5-783.6,35.1-2850.7,35.1H795.6v2213.7v2213.7h3548.3h3548.3l35.1,98.7c19.1,57.3,35,108.3,35,111.5c0,6.4-1611.7,12.7-3583.3,12.7H795.6v270.7v270.7h3643.9h3640.7l-28.7,152.9c-44.6,242.1,73.3,796.3,203.9,946c98.7,111.5,143.3,111.5-4051.5,111.5C970.7,3604.9,120.3,3595.4,110.7,3566.7z M1152.3,3104.8c82.8-73.3,76.4-248.4-12.8-309c-101.9-70.1-175.2-63.7-264.4,28.7c-95.6,92.4-98.7,143.3-12.7,251.6C938.9,3171.7,1063.1,3184.5,1152.3,3104.8z M1719.3,3095.3c127.4-127.4,35-350.4-143.3-350.4c-101.9,0-207,105.1-207,207s105.1,207,207,207C1620.5,3159,1684.2,3130.3,1719.3,3095.3z M2289.4,3073c76.4-95.6,63.7-184.7-35-270.7c-187.9-165.6-433.2,108.3-264.4,293C2072.8,3187.7,2209.8,3178.1,2289.4,3073z"/><path d="M9761.8,2314.9c-117.9-207-353.5-818.6-496.9-1290c-57.4-194.3-60.5-315.3-60.5-2013v-1809.2l-627.5-6.4l-630.7-9.6L7844.4-3068c-57.3-140.1-105.1-273.9-105.1-293c0-60.5,2127.7-60.5,2150,0c9.5,19.1,12.8,1356.9,9.5,2968.6l-9.5,2930.4L9761.8,2314.9z"/></g></g>
</svg>