<?xml version="1.0" encoding="utf-8"?>
<!-- Svg Vector Icons : http://www.onlinewebfonts.com/icon -->
<!DOCTYPE svg PUBLIC "-//W3C//DTD SVG 1.1//EN" "http://www.w3.org/Graphics/SVG/1.1/DTD/svg11.dtd">
<svg version="1.1" xmlns="http://www.w3.org/2000/svg" xmlns:xlink="http://www.w3.org/1999/xlink" x="0px" y="0px" viewBox="0 0 1000 1000" enable-background="new 0 0 1000 1000" xml:space="preserve">
<metadata> Svg Vector Icons : http://www.onlinewebfonts.com/icon </metadata>
<g><path d="M500,10C229.4,10,10,229.4,10,500c0,270.6,219.4,490,490,490c270.6,0,490-219.4,490-490C990,229.4,770.6,10,500,10z M809.2,318.7L410.1,727c-6.1,6.2-14.6,9.8-23.4,9.8c-0.3,0-0.7,0-1-0.1c-9.1-0.3-17.7-4.3-23.7-11.3L189.5,525.3c-11.8-13.7-10.3-34.3,3.4-46.1c13.7-11.8,34.3-10.3,46.1,3.4l149.4,173.3L762.5,273c12.6-12.9,33.3-13.1,46.2-0.5C821.5,285.1,821.8,305.8,809.2,318.7z"/></g>
</svg>