<?xml version="1.0" encoding="utf-8"?>
<!-- Svg Vector Icons : http://www.onlinewebfonts.com/icon -->
<!DOCTYPE svg PUBLIC "-//W3C//DTD SVG 1.1//EN" "http://www.w3.org/Graphics/SVG/1.1/DTD/svg11.dtd">
<svg version="1.1" xmlns="http://www.w3.org/2000/svg" xmlns:xlink="http://www.w3.org/1999/xlink" x="0px" y="0px" viewBox="0 0 1000 1000" enable-background="new 0 0 1000 1000" xml:space="preserve">
<metadata> Svg Vector Icons : http://www.onlinewebfonts.com/icon </metadata>
<g><path d="M816.1,10H183.9c-58.2,0-101.4,47-96.6,105L143,782.8c3.2,38.7,34.6,82.6,70.2,98.2l222.5,97.3c35.5,15.5,93.2,15.5,128.7,0L786.8,881c35.5-15.5,67-59.5,70.2-98.2L912.7,115C917.5,57,874.3,10,816.1,10z M710.7,290.9H370.6l13,71.3h288.6c38.3,0,69.5,30.7,70.2,68.8c0.6,6.3,0.4,12.7-0.7,19.2l-44.9,256.9c-1.8,10-5.6,19.2-11,27.1c-9.3,14.9-24.2,26.4-42.6,31c0,0-80.1,35.2-145,35.2c-64.9,0-158.4-37.2-160-37.8c-24.7-7.4-44.4-28.1-49.1-55.1l-13.3-75.3c-6.7-38.2,18.8-74.6,57-81.4c38.2-6.7,74.6,18.8,81.4,57l5.4,30.5c0,0,46,18.9,75.9,18.9s70.6-17.6,70.6-17.6l23.8-137H324.4c-36.5,0-66.5-25.6-69.9-61.3l-36.7-208.1c-6.5-37.1,17.3-72.5,53.7-80.7c5.7-1.5,11.6-2.3,17.7-2.3h421.4c38.8,0,70.2,31.4,70.2,70.2C780.9,259.5,749.5,290.9,710.7,290.9z"/></g>
</svg>