<svg xmlns="http://www.w3.org/2000/svg" width="2563" height="2447" viewBox="0 0 2563 2447">
  <metadata><?xpacket begin="﻿" id="W5M0MpCehiHzreSzNTczkc9d"?>
<x:xmpmeta xmlns:x="adobe:ns:meta/" x:xmptk="Adobe XMP Core 5.6-c142 79.160924, 2017/07/13-01:06:39        ">
   <rdf:RDF xmlns:rdf="http://www.w3.org/1999/02/22-rdf-syntax-ns#">
      <rdf:Description rdf:about=""/>
   </rdf:RDF>
</x:xmpmeta>
                                                                                                    
                                                                                                    
                                                                                                    
                                                                                                    
                                                                                                    
                                                                                                    
                                                                                                    
                                                                                                    
                                                                                                    
                                                                                                    
                                                                                                    
                                                                                                    
                                                                                                    
                                                                                                    
                                                                                                    
                                                                                                    
                                                                                                    
                                                                                                    
                                                                                                    
                                                                                                    
                           
<?xpacket end="w"?></metadata>
<defs>
    <style>
      .cls-1 {
        fill: #a451f9;
        fill-rule: evenodd;
      }
    </style>
  </defs>
  <path class="cls-1" d="M1554,0.247s1027.86-44.387,1007.04,1010C2541.96,1976.5,1554.15,2016.06,1554,2016.05m0-434.96s559-67.5,559-573.09c0-532.381-559-572.8-559-572.8"/>
  <path class="cls-1" d="M1676,1561s-49.12,13.75-148,22c-86.96,7.26-244-1.88-244-1.88l-243,435.49s228.72,17.15,379,12.39c253.85-8.04,341-46,341-46Z"/>
  <path id="Shape_5_copy" data-name="Shape 5 copy" class="cls-1" d="M1578,0.117h-60L1296,416s180.97,6.006,396,36c31.74,4.427-90-46-90-46Z"/>
  <path id="Shape_1_copy_2" data-name="Shape 1 copy 2" class="cls-1" d="M770,2239L1671.99,681.443,1089,823,361,2081.56"/>
  <path id="Shape_1_copy_5" data-name="Shape 1 copy 5" class="cls-1" d="M1182,0L236.377,1669.02,118,1125,759-2"/>
  <path class="cls-1" d="M1671,682s-346.11-231.081-583,142l400,173Z"/>
  <path id="Shape_1_copy" data-name="Shape 1 copy" class="cls-1" d="M188,2380.2s346.111,231.23,583-142.09L371,2065Z"/>
  <path id="Shape_1_copy_3" data-name="Shape 1 copy 3" class="cls-1" d="M148,1075s-247.35,325.95,87.34,594.2L451,1290Z"/>
</svg>
