<?xml version="1.0" encoding="utf-8"?>
<!-- Svg Vector Icons : http://www.onlinewebfonts.com/icon -->
<!DOCTYPE svg PUBLIC "-//W3C//DTD SVG 1.1//EN" "http://www.w3.org/Graphics/SVG/1.1/DTD/svg11.dtd">
<svg version="1.1" xmlns="http://www.w3.org/2000/svg" xmlns:xlink="http://www.w3.org/1999/xlink" x="0px" y="0px" viewBox="0 0 1000 1000" enable-background="new 0 0 1000 1000" xml:space="preserve">
<metadata> Svg Vector Icons : http://www.onlinewebfonts.com/icon </metadata>
<g><g transform="translate(0.000000,511.000000) scale(0.100000,-0.100000)"><path d="M341.2,4593.7c-90-32.5-179.9-112.9-214.4-195.2c-23-51.7-26.8-639.3-26.8-3602.3c0-2455.7,5.7-3556.3,21.1-3594.6c24.9-67,103.4-151.2,179.9-193.3c51.7-28.7,206.7-32.5,1642.3-38.3c1047-3.8,1582.9-11.5,1582.9-24.9c0-44-155-1018.3-164.6-1033.6c-5.7-9.6-109.1-17.2-229.7-17.2h-220.1l5.7-147.4l5.7-149.3H5000h2076.8l5.7,149.3l5.7,147.4h-220.1c-120.6,0-223.9,7.7-229.7,15.3c-9.6,15.3-164.6,995.3-164.6,1037.4c0,11.5,633.5,21,1584.8,23c1433.6,5.7,1588.7,9.6,1640.4,38.3c76.6,42.1,155,126.3,179.9,193.3c15.3,38.3,21,1138.9,21,3594.6c0,2930.4-3.8,3550.6-26.8,3602.3c-32.5,82.3-145.5,178-235.4,202.9c-49.8,15.3-1512.1,21.1-4647.3,21.1C1156.6,4620.5,404.3,4616.7,341.2,4593.7z M7909.4,3207.9c36.4-19.1,86.1-63.2,111-97.6l44-65.1l-5.7-903.4l-5.7-905.4l-67-68.9c-36.4-36.4-95.7-76.6-134-86.1c-91.9-24.9-5612-24.9-5703.9,0c-38.3,9.6-97.6,49.8-134,86.1l-67,68.9l-5.7,905.4l-5.7,903.4l44,67c24.9,36.4,74.6,80.4,111,97.6c63.2,32.5,241.2,34.4,2909.4,34.4C7729.4,3244.3,7846.2,3242.4,7909.4,3207.9z M6969.6,821.1c344.5-57.4,635.4-109.1,650.8-114.8c19.1-5.7-30.6-68.9-151.2-189.5l-181.8-181.8l436.4-436.4L8158.2-536l-185.7-187.6L7785-909.2l-434.5,434.5L6914.1-38.3l-189.5-189.5c-178-176.1-191.4-187.6-201-143.6c-15.3,67-222,1259.5-222,1280.5C6301.6,935.9,6292,937.8,6969.6,821.1z M9593.7-2333.3c0-321.6-3.8-373.2-30.6-382.8c-38.3-15.3-9088-15.3-9126.3,0c-26.8,9.6-30.6,61.3-30.6,382.8v371.3H5000h4593.7V-2333.3z M6232.7-3516.2c40.2-266,78.5-507.2,82.3-535.9l11.5-53.6H5000H3675.5l9.6,53.6c3.8,28.7,42.1,269.9,82.3,535.9l74.6,482.3h1158h1159.9L6232.7-3516.2z"/><path d="M2243.7,2153.3v-784.8H5000h2756.2v784.8V2938H5000H2243.7V2153.3z M3001.7,2268.1c55.5-216.3,103.4-400,103.4-411.5c1.9-9.6,32.5,80.4,68.9,201c38.3,120.6,95.7,306.3,130.2,411.5l61.3,191.4l76.6,5.7l78.5,5.7l97.6-321.6c53.6-176.1,109.1-363.7,124.4-417.3c24.9-91.9,26.8-91.9,40.2-38.3c7.7,32.5,57.4,218.2,112.9,417.3l99.5,357.9h90c88,0,90,0,74.6-51.7c-9.6-30.6-82.3-258.4-162.7-507.2l-147.4-455.5h-84.2h-82.3l-72.7,225.9c-38.3,122.5-93.8,306.3-122.5,405.8c-49.8,172.3-53.6,178-67,114.8c-17.2-80.4-151.2-505.3-204.8-645c-36.4-101.4-38.3-101.4-118.7-101.4h-82.3l-145.5,488.1c-82.3,268-147.4,495.7-147.4,507.2c0,13.4,34.4,19.1,90,15.3l90-5.7L3001.7,2268.1z M4458.3,2637.5c7.7-19.1,57.4-206.7,112.9-417.3l97.6-382.8l23,86.1c13.4,47.9,70.8,235.4,128.2,417.3l105.3,329.2h74.6h74.7l76.6-243.1c42.1-135.9,95.7-315.8,120.6-402c44-156.9,70.8-201,74.6-114.8c0,23,45.9,201,101.5,396.2l101.4,354.1l90,5.7c107.2,7.7,116.7,70.8-82.3-541.7l-147.4-459.4l-86.1-5.7l-84.2-5.7L5130.2,2004c-61.3,193.3-114.8,375.1-122.5,407.7c-11.5,49.8-19.1,38.3-57.4-105.3c-23-90-80.4-269.9-126.3-402l-84.2-239.3h-84.2h-84.2l-149.3,488.1c-82.3,268-149.3,493.8-149.3,503.4c0,7.7,38.3,13.4,86.1,13.4C4423.9,2670.1,4448.8,2662.4,4458.3,2637.5z M6068,2446.1c34.4-124.4,80.4-306.3,103.4-402c24.9-97.6,49.8-178,57.4-178c9.6,0,15.3,11.5,15.3,24.9c0,11.5,53.6,193.3,118.7,402l118.7,379l76.6-5.7l76.6-5.7l101.4-325.4c53.6-178,109.1-363.7,122.5-411.5l23-86.1l19.1,76.6c15.3,67,168.4,629.7,197.1,723.5c7.7,24.9,30.6,32.5,95.7,32.5c45.9,0,84.2-5.7,84.2-13.4c0-9.6-70.8-237.3-157-509.1l-158.9-493.8l-84.2,5.7l-84.2,5.7L6692,1986.7c-55.5,178-107.2,352.2-114.8,388.6c-13.4,70.8-45.9,90-45.9,24.9c0-21.1-53.6-197.1-116.7-392.4l-118.7-352.2h-82.3h-82.3l-57.4,187.6c-30.6,101.5-97.6,319.7-147.4,482.3c-49.8,162.7-93.8,308.2-97.6,321.6c-7.6,15.3,17.2,23,86.1,23h93.8L6068,2446.1z"/></g></g>
</svg>