<?xml version="1.0" encoding="utf-8"?>
<!-- Generator: Adobe Illustrator 22.0.1, SVG Export Plug-In . SVG Version: 6.00 Build 0)  -->
<svg version="1.1" id="lines" xmlns="http://www.w3.org/2000/svg" xmlns:xlink="http://www.w3.org/1999/xlink" x="0px" y="0px"
	 viewBox="0 0 1920 1080" style="enable-background:new 0 0 1920 1080;" xml:space="preserve">
<style type="text/css">
	.st0{fill:#F8FDFF;}
	.st1{display:none;opacity:0.5;fill:none;stroke:#FFFF00;stroke-width:2;enable-background:new    ;}
	.st2{opacity:0.5;fill:#81E0FF;enable-background:new    ;}
	.st3{opacity:0.2;fill:#81E0FF;enable-background:new    ;}
	.st4{fill:none;stroke:#00FF00;}
	.st5{fill:none;stroke:#FF8A00;}
</style>
<path class="st0" d="M1922,96.7c0,0-217.3,123.6-475.2,44.3S1048.8-60.7,775,92S240.4,194.6-30.2-16.5s85.1-721,85.1-721
	l868.9,135.7c0,0,966.2,244.7,977.6,247.3s255.1,97.4,255.1,97.4l-183.7,364.8L1922,96.7z"/>
<path id="lines-2" class="st1" d="M-1516.5,1030.1l54.4,54.4H-1571L-1516.5,1030.1z"/>
<path id="lines-3" class="st2" d="M176.5,59L176.5,59c5.5,0,10,4.5,10,10v99c0,5.5-4.5,10-10,10l0,0c-5.5,0-10-4.5-10-10V69
	C166.5,63.5,171,59,176.5,59z"/>
<path id="lines-4" class="st3" d="M148,154.7L148,154.7c5.5,0,10,4.2,10,9.3v52.3c0,5.2-4.5,9.3-10,9.3l0,0c-5.5,0-10-4.2-10-9.3
	V164C138,158.8,142.5,154.7,148,154.7z"/>
<path id="lines-4_1_" class="st3" d="M124.4,83.6L124.4,83.6c2.8,0,5,1.1,5,2.4v23.6c0,1.3-2.2,2.4-5,2.4l0,0c-2.8,0-5-1.1-5-2.4V86
	C119.4,84.7,121.6,83.6,124.4,83.6z"/>
<path class="st4" d="M1360.8,146l29,8.6l-26.7,23.4L1360.8,146z"/>
<circle class="st5" cx="593" cy="50.5" r="11"/>
</svg>
