<svg id="angular" xmlns="http://www.w3.org/2000/svg" width="1920" height="1080" viewBox="0 0 1920 1080">
  <metadata><?xpacket begin="﻿" id="W5M0MpCehiHzreSzNTczkc9d"?>
<x:xmpmeta xmlns:x="adobe:ns:meta/" x:xmptk="Adobe XMP Core 5.6-c142 79.160924, 2017/07/13-01:06:39        ">
   <rdf:RDF xmlns:rdf="http://www.w3.org/1999/02/22-rdf-syntax-ns#">
      <rdf:Description rdf:about=""/>
   </rdf:RDF>
</x:xmpmeta>
                                                                                                    
                                                                                                    
                                                                                                    
                                                                                                    
                                                                                                    
                                                                                                    
                                                                                                    
                                                                                                    
                                                                                                    
                                                                                                    
                                                                                                    
                                                                                                    
                                                                                                    
                                                                                                    
                                                                                                    
                                                                                                    
                                                                                                    
                                                                                                    
                                                                                                    
                                                                                                    
                           
<?xpacket end="w"?></metadata>
<defs>
    <style>
      .cls-1, .cls-14 {
        fill: #f8fdff;
      }

      .cls-1, .cls-10, .cls-13, .cls-16, .cls-17, .cls-5, .cls-9 {
        fill-rule: evenodd;
      }

      .cls-2 {
        fill: none;
        stroke: #e5e5e5;
        stroke-width: 1px;
      }

      .cls-10, .cls-11, .cls-3, .cls-7 {
        fill: #e5e5e5;
      }

      .cls-13, .cls-15, .cls-16, .cls-17, .cls-3, .cls-4, .cls-5 {
        opacity: 0.5;
      }

      .cls-14, .cls-15, .cls-4, .cls-6, .cls-8 {
        font-size: 32px;
        text-anchor: middle;
      }

      .cls-4 {
        fill: #eb4f38;
      }

      .cls-15, .cls-4, .cls-8 {
        font-family: Arial;
      }

      .cls-5 {
        fill: #ed7364;
      }

      .cls-6 {
        fill: #fcfcfc;
      }

      .cls-14, .cls-6 {
        font-family: "Open Sans";
      }

      .cls-7 {
        opacity: 0.3;
      }

      .cls-8 {
        fill: #fab114;
      }

      .cls-9 {
        fill: #facc14;
      }

      .cls-10, .cls-11, .cls-9 {
        opacity: 0.56;
      }

      .cls-10 {
        stroke: #fff;
        stroke-linecap: round;
        stroke-linejoin: round;
        stroke-width: 5.07px;
      }

      .cls-12 {
        fill: #1dbdff;
        opacity: 0.4;
      }

      .cls-13 {
        fill: #f83e8d;
      }

      .cls-15 {
        fill: #42bb84;
      }

      .cls-16 {
        fill: #41b883;
      }

      .cls-17 {
        fill: #34495e;
      }
    </style>
  </defs>
  <path class="cls-1" d="M-7,46S77.273,67.112,115,150s53.455,227.788,154,171,176.273-15.784,195,25,7.091,104.2-88,176S354.091,745.261,580,692s226.727,52.587,227,88.188S694.727,949.25,496,864.719,157.273,860.868,125,918,25.909,1033.58-15,1035-7,46-7,46Z"/>
  <circle id="line" class="cls-2" cx="441.5" cy="550.5" r="341.5"/>
  <circle id="angular-2" data-name="angular" class="cls-3" cx="117.188" cy="436.313" r="45.188"/>
  <text id="ANGU" class="cls-4" transform="matrix(0.264, -0.138, 0.137, 0.264, 170.982, 495.282)"><tspan x="0">ANGU</tspan></text>
  <path class="cls-5" d="M155,412l-37-13L81,412l8,45,29,16,30-16Z"/>
  <text id="A" class="cls-6" transform="translate(118.102 451.559) scale(1.747)"><tspan x="0">A</tspan></text>
  <circle id="html-2" data-name="html" class="cls-7" cx="286.5" cy="605.5" r="28.5"/>
  <text id="HTML-3" data-name="HTML" class="cls-8" transform="translate(562.604 614.869) rotate(17.48) scale(0.474)"><tspan x="0">HTML</tspan></text>
  <path class="cls-9" d="M293,582l14,26s1.693,3.691,0,6-7.274,10.22-9,11-14,1-14,1-0.663.412-2-1-17-23-17-23-2.07-3.349,0-5,23-15,23-15S291.071,580.334,293,582Z"/>
  <path class="cls-10" d="M290,591l-15,10,5,7,13-7s7,9.5,0,14a6.838,6.838,0,0,1-9-1"/>
  <circle id="css-2" data-name="css" class="cls-11" cx="1056.5" cy="997.5" r="23.5"/>
  <rect id="Rounded_Rectangle_1" data-name="Rounded Rectangle 1" class="cls-12" x="1043" y="987" width="54" height="24" rx="4" ry="4"/>
  <text id="css-3" data-name="css" class="cls-6" transform="translate(1069.891 1003.825) scale(0.621)"><tspan x="0">css</tspan></text>
  <path id="WWW-2" data-name="WWW" class="cls-13" d="M289.424,843.668l28.321,20.565a2,2,0,0,1,.443,2.794L308.2,880.783l-31.557-22.917,9.989-13.755A2,2,0,0,1,289.424,843.668Z"/>
  <path id="WWW-3" data-name="WWW" class="cls-13" d="M276.054,858.675l31.557,22.917-1.175,1.618a2,2,0,0,1-2.794.443l-28.32-20.566a2,2,0,0,1-.443-2.793Z"/>
  <text id="www-4" data-name="www" class="cls-14" transform="translate(295.075 865.047) rotate(35.987) scale(0.478)"><tspan x="0">www</tspan></text>
  <text id="_.Vue" data-name=".Vue" class="cls-15" transform="translate(1703.604 753.869) rotate(17.48) scale(0.474)"><tspan x="0">.Vue</tspan></text>
  <path class="cls-16" d="M1633.77,718.422l39.39,22.877,0.4-45.616s-6.81,3.894-14.8,8.459c0.11,0.242,1.76,9.988.24,10.858s-9.22-5.72-9.29-5.69C1641.24,714.15,1633.77,718.422,1633.77,718.422Z"/>
  <path class="cls-17" d="M1665.55,700.278l-0.21,27.2-23.75-13.634,7.58-4.294,8.75,5.188,0.2-10.255Z"/>
</svg>
