<svg id="angular" xmlns="http://www.w3.org/2000/svg" width="1920" height="1080" viewBox="0 0 1920 1080">
  <metadata><?xpacket begin="﻿" id="W5M0MpCehiHzreSzNTczkc9d"?>
<x:xmpmeta xmlns:x="adobe:ns:meta/" x:xmptk="Adobe XMP Core 5.6-c142 79.160924, 2017/07/13-01:06:39        ">
   <rdf:RDF xmlns:rdf="http://www.w3.org/1999/02/22-rdf-syntax-ns#">
      <rdf:Description rdf:about=""/>
   </rdf:RDF>
</x:xmpmeta>
                                                                                                    
                                                                                                    
                                                                                                    
                                                                                                    
                                                                                                    
                                                                                                    
                                                                                                    
                                                                                                    
                                                                                                    
                                                                                                    
                                                                                                    
                                                                                                    
                                                                                                    
                                                                                                    
                                                                                                    
                                                                                                    
                                                                                                    
                                                                                                    
                                                                                                    
                                                                                                    
                           
<?xpacket end="w"?></metadata>
<defs>
    <style>
      .cls-1, .cls-20 {
        fill: #f8fdff;
      }

      .cls-1, .cls-10, .cls-12, .cls-13, .cls-21, .cls-25, .cls-26, .cls-27, .cls-5, .cls-9 {
        fill-rule: evenodd;
      }

      .cls-13, .cls-2, .cls-21 {
        fill: none;
      }

      .cls-13, .cls-2 {
        stroke: #e5e5e5;
        stroke-width: 1px;
      }

      .cls-10, .cls-11, .cls-17, .cls-3, .cls-7 {
        fill: #e5e5e5;
      }

      .cls-15, .cls-19, .cls-21, .cls-22, .cls-24, .cls-25, .cls-26, .cls-3, .cls-4, .cls-5 {
        opacity: 0.5;
      }

      .cls-14, .cls-15, .cls-20, .cls-24, .cls-4, .cls-6, .cls-8 {
        font-size: 32px;
        text-anchor: middle;
      }

      .cls-4 {
        fill: #eb4f38;
      }

      .cls-14, .cls-24, .cls-4, .cls-8 {
        font-family: Arial;
      }

      .cls-5 {
        fill: #ed7364;
      }

      .cls-6 {
        fill: #fcfcfc;
      }

      .cls-15, .cls-20, .cls-6 {
        font-family: "Open Sans";
      }

      .cls-7 {
        opacity: 0.3;
      }

      .cls-14, .cls-8 {
        fill: #fab114;
      }

      .cls-9 {
        fill: #facc14;
      }

      .cls-10, .cls-17, .cls-9 {
        opacity: 0.56;
      }

      .cls-10 {
        stroke: #fff;
        stroke-linecap: round;
        stroke-linejoin: round;
        stroke-width: 5.07px;
      }

      .cls-11, .cls-14 {
        opacity: 0.67;
      }

      .cls-12 {
        fill: #feb64f;
        opacity: 0.68;
      }

      .cls-15 {
        fill: #992bff;
      }

      .cls-16 {
        fill: #353535;
      }

      .cls-18 {
        fill: #1dbdff;
      }

      .cls-19 {
        fill: #f83e8d;
      }

      .cls-21 {
        stroke: #ff0;
        stroke-width: 2px;
      }

      .cls-22, .cls-23, .cls-27 {
        fill: #81e0ff;
      }

      .cls-23 {
        opacity: 0.2;
      }

      .cls-24 {
        fill: #42bb84;
      }

      .cls-25 {
        fill: #41b883;
      }

      .cls-26 {
        fill: #34495e;
      }
    </style>
  </defs>
  <path class="cls-1" d="M-8,721.285S178.109,554.218,447,577s431.894,112.573,667-95,500.65-213.891,810-65,70,723,70,723l-878,52s-996.244-33.86-1008-34-270-41-270-41L-60,721.285H-8Z"/>
  <circle id="line" class="cls-2" cx="960.5" cy="598.5" r="341.5"/>
  <circle id="angular-2" data-name="angular" class="cls-3" cx="413.188" cy="590.313" r="45.188"/>
  <text id="ANGU" class="cls-4" transform="matrix(0.264, -0.138, 0.137, 0.264, 466.982, 649.282)"><tspan x="0">ANGU</tspan></text>
  <path class="cls-5" d="M451,566l-37-13-37,13,8,45,29,16,30-16Z"/>
  <text id="A" class="cls-6" transform="translate(414.102 605.558) scale(1.747)"><tspan x="0">A</tspan></text>
  <circle id="html-2" data-name="html" class="cls-7" cx="820.5" cy="285.5" r="28.5"/>
  <text id="HTML-3" data-name="HTML" class="cls-8" transform="translate(1096.604 294.869) rotate(17.48) scale(0.474)"><tspan x="0">HTML</tspan></text>
  <path class="cls-9" d="M827,262l14,26s1.693,3.691,0,6-7.274,10.22-9,11-14,1-14,1-0.663.412-2-1-17-23-17-23-2.07-3.349,0-5,23-15,23-15S825.071,260.334,827,262Z"/>
  <path class="cls-10" d="M824,271l-15,10,5,7,13-7s7,9.5,0,14a6.838,6.838,0,0,1-9-1"/>
  <circle id="js-2" data-name="js" class="cls-11" cx="1364.815" cy="347.563" r="27.815"/>
  <path class="cls-12" d="M1357,327l30,14-12,22h-17l-10-12Z"/>
  <path id="js-3" data-name="js" class="cls-13" d="M1366,342l-10,1,6,8,8-6,6,7h-9"/>
  <text id="_.JS" data-name=".JS" class="cls-14" transform="matrix(0.524, 0.164, -0.165, 0.52, 1379.462, 422.334)"><tspan x="0">.JS</tspan></text>
  <circle id="php-2" data-name="php" class="cls-3" cx="1541" cy="794" r="29"/>
  <text id="php-3" data-name="php" class="cls-15" transform="matrix(1, 0, -0.32, 1, 1537.06, 798.708)"><tspan x="0">p<tspan class="cls-16">h</tspan>p</tspan></text>
  <circle id="css-2" data-name="css" class="cls-17" cx="1236.5" cy="801.5" r="23.5"/>
  <rect id="Rounded_Rectangle_1" data-name="Rounded Rectangle 1" class="cls-18" x="1223" y="791" width="54" height="24" rx="4" ry="4"/>
  <text id="css-3" data-name="css" class="cls-6" transform="translate(1249.891 807.826) scale(0.621)"><tspan x="0">css</tspan></text>
  <circle id="Ellipse_1_copy_5" data-name="Ellipse 1 copy 5" class="cls-3" cx="714" cy="837" r="28"/>
  <path id="WWW-2" data-name="WWW" class="cls-19" d="M696,820h35a2,2,0,0,1,2,2v17a0,0,0,0,1,0,0H694a0,0,0,0,1,0,0V822A2,2,0,0,1,696,820Z"/>
  <path id="WWW-3" data-name="WWW" class="cls-19" d="M694,840h39a0,0,0,0,1,0,0v2a2,2,0,0,1-2,2H696a2,2,0,0,1-2-2v-2A0,0,0,0,1,694,840Z"/>
  <rect id="WWW-4" data-name="WWW" class="cls-19" x="705" y="846" width="19" height="3" rx="1.5" ry="1.5"/>
  <rect id="WWW-5" data-name="WWW" class="cls-19" x="713" y="842" width="3" height="6" rx="1.5" ry="1.5"/>
  <text id="www-6" data-name="www" class="cls-20" transform="translate(713.136 833.978) scale(0.478)"><tspan x="0">www</tspan></text>
  <path id="lines-2" data-name="lines" class="cls-21" d="M136.5,935.053L190.947,989.5H82.053Z"/>
  <rect id="lines-3" data-name="lines" class="cls-22" x="1758" y="67" width="20" height="119" rx="10" ry="10"/>
  <rect id="lines-4" data-name="lines" class="cls-23" x="1738" y="151" width="20" height="119" rx="10" ry="10"/>
  <text id="_.Vue" data-name=".Vue" class="cls-24" transform="translate(1061.604 954.869) rotate(17.48) scale(0.474)"><tspan x="0">.Vue</tspan></text>
  <path class="cls-25" d="M991.769,919.422L1031.16,942.3l0.4-45.616s-6.81,3.894-14.8,8.459c0.11,0.242,1.76,9.988.24,10.858s-9.22-5.72-9.29-5.69Z"/>
  <path class="cls-26" d="M1023.55,901.278l-0.21,27.2-23.747-13.634,7.577-4.294,8.75,5.188,0.2-10.255Z"/>
  <circle id="vinkel" class="cls-3" cx="433.515" cy="741.906" r="19.516"/>
  <path id="vinkel-2" data-name="vinkel" class="cls-27" d="M433.372,764.812l15.992-13.849a2.829,2.829,0,1,0-3.7-4.277l-15.992,13.849A2.829,2.829,0,1,0,433.372,764.812Zm15.959-13.82a2.874,2.874,0,0,0,.291-4.053L436.1,731.323a2.873,2.873,0,0,0-4.344,3.761L445.279,750.7A2.873,2.873,0,0,0,449.331,750.992ZM421.34,735.314l15.992-13.849a2.829,2.829,0,1,0-3.7-4.277l-15.992,13.849A2.829,2.829,0,1,0,421.34,735.314Zm13.614,15.654a2.873,2.873,0,0,0,.291-4.052L421.721,731.3a2.873,2.873,0,1,0-4.343,3.762L430.9,750.677A2.874,2.874,0,0,0,434.954,750.968Z"/>
</svg>
